name C:\Users\u0150099\Documents\master_thesis\3dpredictsim\Results\debug\Fal_s1_mtjc2_sc_cspx10_oy2_ATx70_Fpsl10_MTc2_MTPm_k1_d01_MTJm_nl_MG_exp5_table_d01_PF_Natali2010_ls146_FDB2_lTs125_Fpsl10_ig21_wAk5e+04_wa2e+03_wpMnD1e+03.mot
datacolumns 130
datarows 4
range 0.00000000 0.03138830
endheader
time	pelvis_tilt	pelvis_list	pelvis_rotation	pelvis_tx	pelvis_ty	pelvis_tz	hip_flexion_l	hip_adduction_l	hip_rotation_l	hip_flexion_r	hip_adduction_r	hip_rotation_r	knee_angle_l	knee_angle_r	ankle_angle_l	ankle_angle_r	subtalar_angle_l	subtalar_angle_r	mtj_angle_l	mtj_angle_r	mtp_angle_l	mtp_angle_r	lumbar_extension	lumbar_bending	lumbar_rotation	arm_flex_l	arm_add_l	arm_rot_l	arm_flex_r	arm_add_r	arm_rot_r	elbow_flex_l	elbow_flex_r	pro_sup_l	pro_sup_r	glut_med1_l/activation	glut_med2_l/activation	glut_med3_l/activation	glut_min1_l/activation	glut_min2_l/activation	glut_min3_l/activation	semimem_l/activation	semiten_l/activation	bifemlh_l/activation	bifemsh_l/activation	sar_l/activation	add_long_l/activation	add_brev_l/activation	add_mag1_l/activation	add_mag2_l/activation	add_mag3_l/activation	tfl_l/activation	pect_l/activation	grac_l/activation	glut_max1_l/activation	glut_max2_l/activation	glut_max3_l/activation	iliacus_l/activation	psoas_l/activation	quad_fem_l/activation	gem_l/activation	peri_l/activation	rect_fem_l/activation	vas_med_l/activation	vas_int_l/activation	vas_lat_l/activation	med_gas_l/activation	lat_gas_l/activation	soleus_l/activation	tib_post_l/activation	flex_dig_l/activation	flex_hal_l/activation	tib_ant_l/activation	per_brev_l/activation	per_long_l/activation	per_tert_l/activation	ext_dig_l/activation	ext_hal_l/activation	FDB_l/activation	ercspn_l/activation	intobl_l/activation	extobl_l/activation	glut_med1_r/activation	glut_med2_r/activation	glut_med3_r/activation	glut_min1_r/activation	glut_min2_r/activation	glut_min3_r/activation	semimem_r/activation	semiten_r/activation	bifemlh_r/activation	bifemsh_r/activation	sar_r/activation	add_long_r/activation	add_brev_r/activation	add_mag1_r/activation	add_mag2_r/activation	add_mag3_r/activation	tfl_r/activation	pect_r/activation	grac_r/activation	glut_max1_r/activation	glut_max2_r/activation	glut_max3_r/activation	iliacus_r/activation	psoas_r/activation	quad_fem_r/activation	gem_r/activation	peri_r/activation	rect_fem_r/activation	vas_med_r/activation	vas_int_r/activation	vas_lat_r/activation	med_gas_r/activation	lat_gas_r/activation	soleus_r/activation	tib_post_r/activation	flex_dig_r/activation	flex_hal_r/activation	tib_ant_r/activation	per_brev_r/activation	per_long_r/activation	per_tert_r/activation	ext_dig_r/activation	ext_hal_r/activation	FDB_r/activation	ercspn_r/activation	intobl_r/activation	extobl_r/activation	
          0.00000000	         -2.92844301	         -1.30960816	          2.64518268	          0.00000000	          0.90895044	         -0.00346598	        -13.59516666	          1.93251591	          8.20245300	         29.80343412	          2.51888219	         -3.66315381	        -15.40121447	        -12.91194001	          8.85070297	          9.91630371	          6.77636097	          4.91193522	         -0.79823781	         -0.36452770	         15.16458184	          5.10549757	         -4.29431609	          0.73954765	         -1.52919004	          2.97514290	        -14.04586247	         19.38771517	         -2.94543631	        -13.50759194	          7.91293928	         41.35657983	         24.78688747	         86.51662706	         86.51662706	          0.25438216	          0.05871898	          0.05000005	          0.46405411	          0.18415355	          0.07534115	          0.05000077	          0.05000009	          0.05000007	          0.05000035	          0.09510652	          0.05000006	          0.05000005	          0.05000013	          0.05000042	          0.05000025	          0.57431391	          0.05000031	          0.05000017	          0.05000115	          0.05000053	          0.05000029	          0.35537900	          0.76330932	          0.05000004	          0.05000017	          0.05000005	          0.43854123	          0.14777067	          0.17168630	          0.14542409	          0.37379743	          0.46977371	          0.28385104	          0.52388469	          0.39126382	          0.50500521	          0.05000000	          0.06895830	          0.22171781	          0.05000004	          0.05000002	          0.09510510	          0.72146566	          0.05000000	          0.05000000	          0.05000000	          0.06895812	          0.05000012	          0.05871899	          0.05000006	          0.05000008	          0.05000045	          0.31206487	          0.06895838	          0.35517324	          0.05165864	          0.05000073	          0.08647542	          0.16280842	          0.12791379	          0.17355802	          0.17455635	          0.05000129	          0.05002055	          0.10579279	          0.05872026	          0.07991359	          0.13957257	          0.05000005	          0.05000006	          0.16400471	          0.05000117	          0.05000028	          0.05000006	          0.05000127	          0.05000109	          0.05000074	          0.05000009	          0.05000010	          0.05000001	          0.05128603	          0.09510470	          0.05592617	          0.31707204	          0.05000028	          0.06574018	          0.19461314	          0.58264395	          0.39318739	          0.07418736	          0.06340748	          0.07386618	          0.09510601	
          0.01046277	         -2.93014407	         -1.38961659	          2.92917745	          0.01635714	          0.90804087	         -0.00319197	        -14.14957154	          1.56355651	          8.20681465	         29.49143862	          2.83051452	         -3.67449505	        -15.99454846	        -13.13799148	          7.87867726	          9.44811560	          7.45078724	          5.00667146	         -1.73650352	         -0.00490572	         17.63475666	          4.17064911	         -4.12858029	          0.89772049	         -1.60959552	          2.52324317	        -14.02923287	         19.31918191	         -3.72678346	        -13.46623767	          6.95676454	         43.13930396	         24.36317741	         86.51662706	         86.51662706	          0.21660989	          0.05000005	          0.05000001	          0.39514841	          0.15680927	          0.06415406	          0.05000139	          0.05000011	          0.05000006	          0.05000024	          0.08098458	          0.08933140	          0.05001049	          0.05000030	          0.05000092	          0.05000072	          0.54801536	          0.05871853	          0.05000013	          0.05000029	          0.05000018	          0.05000018	          0.30261004	          0.68599391	          0.05000001	          0.05000007	          0.05000007	          0.41094499	          0.17019146	          0.18390481	          0.15578594	          0.33926392	          0.42847705	          0.24391685	          0.47739983	          0.35802756	          0.43001981	          0.05000000	          0.05871896	          0.18879572	          0.05000003	          0.05000001	          0.08098329	          0.61433777	          0.05000000	          0.05000007	          0.06760551	          0.05871896	          0.05871897	          0.05000009	          0.05871899	          0.05871899	          0.05871883	          0.27503333	          0.05871903	          0.31328332	          0.05871897	          0.05000011	          0.15413080	          0.18475448	          0.10892048	          0.17231132	          0.16989936	          0.05000006	          0.05000324	          0.09008427	          0.05000120	          0.06804756	          0.16001869	          0.05910134	          0.05001666	          0.41419011	          0.24127921	          0.11804877	          0.05000002	          0.05000003	          0.05000003	          0.05000002	          0.05000161	          0.05000026	          0.05000001	          0.05871889	          0.08098322	          0.08098257	          0.32276589	          0.05000117	          0.09657665	          0.22239215	          0.61927190	          0.36561644	          0.07962823	          0.05399233	          0.06289806	          0.08098406	
          0.02092554	         -2.92994331	         -1.48219478	          3.19797331	          0.03297141	          0.90717845	         -0.00289498	        -14.61715929	          1.17290168	          8.17229122	         29.18497978	          3.09913337	         -3.66796903	        -16.70423799	        -14.03997185	          6.74789592	          8.59247452	          8.16231520	          5.10335191	         -2.77287454	          0.33838118	         20.29463559	          3.18349258	         -3.94915664	          1.06824064	         -1.68337922	          2.00432770	        -13.99381638	         19.16163559	         -4.50906378	        -13.44970718	          6.27734814	         44.91273086	         23.91242573	         86.51662706	         86.51662706	          0.18444627	          0.05871897	          0.05871897	          0.33647424	          0.13352524	          0.05871896	          0.05000140	          0.05000042	          0.05455887	          0.05000004	          0.06895957	          0.21413924	          0.09845403	          0.05871925	          0.05871903	          0.05871945	          0.46664280	          0.05000049	          0.05871900	          0.05871901	          0.05871899	          0.05871901	          0.25767655	          0.61409691	          0.05871899	          0.05871902	          0.05871886	          0.34992526	          0.18895609	          0.19975296	          0.16835811	          0.29662174	          0.38137780	          0.20769850	          0.40651244	          0.30486538	          0.36616773	          0.05000001	          0.05000001	          0.16076212	          0.05000001	          0.05000000	          0.06895837	          0.52311693	          0.05984545	          0.06895833	          0.06797560	          0.05000000	          0.05000002	          0.12503190	          0.05000003	          0.05000003	          0.05000003	          0.23419461	          0.05000006	          0.26676499	          0.05000002	          0.08098297	          0.13124465	          0.31964735	          0.30374200	          0.15127590	          0.19431474	          0.05871884	          0.08098288	          0.07670803	          0.05000025	          0.10247372	          0.18031081	          0.06895851	          0.06895848	          0.65490192	          0.20545255	          0.10052018	          0.06895841	          0.12759147	          0.12830011	          0.10228414	          0.06895834	          0.06895851	          0.06895834	          0.05000009	          0.06895835	          0.06895782	          0.40165659	          0.08109322	          0.08223633	          0.41203551	          0.66266396	          0.31200451	          0.06780452	          0.05000000	          0.05355855	          0.06895903	
          0.03138830	         -2.92867160	         -1.60685600	          3.45323552	          0.04979847	          0.90640688	         -0.00260946	        -14.99364759	          0.75216381	          8.10805116	         28.79379008	          3.29425365	         -3.57554420	        -17.52418698	        -15.12674155	          5.44156403	          7.67337796	          8.85221472	          5.19847448	         -3.89119214	          0.60230998	         23.07130707	          2.16224293	         -3.75652656	          1.27234617	         -1.75095969	          1.42953259	        -13.93987267	         18.95881819	         -5.27680555	        -13.46165755	          5.86229033	         46.66525682	         23.41298966	         86.51662706	         86.51662706	          0.19212489	          0.05000002	          0.05000000	          0.28725393	          0.11369858	          0.05000005	          0.05000073	          0.05000006	          0.05000003	          0.05871904	          0.05872033	          0.21424761	          0.10527732	          0.05000031	          0.05000039	          0.05000051	          0.54282473	          0.06896004	          0.05000019	          0.05000024	          0.05000012	          0.05000010	          0.21941509	          0.70198650	          0.05000002	          0.05000007	          0.05000000	          0.29796611	          0.16089869	          0.17009237	          0.14335922	          0.25257743	          0.32474840	          0.17685809	          0.34615086	          0.25959702	          0.31179680	          0.13903917	          0.12150856	          0.13689113	          0.05000010	          0.05000002	          0.05871899	          0.44544114	          0.08657733	          0.05871896	          0.05788215	          0.33889688	          0.34214802	          0.40279214	          0.39521774	          0.28901228	          0.26213767	          0.19974837	          0.15244096	          0.22800673	          0.09510495	          0.06895814	          0.11175662	          0.27218410	          0.25864047	          0.12881367	          0.25464566	          0.05000013	          0.06895830	          0.20661079	          0.05000029	          0.20356031	          0.24959717	          0.05871913	          0.05871909	          0.55765787	          0.17494568	          0.14188148	          0.05871902	          0.10864587	          0.10924928	          0.08709634	          0.05871896	          0.05871911	          0.05871896	          0.08727745	          0.05871901	          0.05871900	          0.47671029	          0.06905198	          0.09313888	          0.42085999	          0.80127687	          0.59470500	          0.39395591	          0.07187371	          0.09510545	          0.05871955	
